<svg id="svg" version="1.1" xmlns="http://www.w3.org/2000/svg" xmlns:xlink="http://www.w3.org/1999/xlink" width="400" height="400" viewBox="0, 0, 400,400"><g id="svgg"><path id="path0" d="M398.945 5.000 C 399.071 5.330,399.016 5.600,398.821 5.600 C 398.626 5.600,398.407 5.441,398.333 5.246 C 398.260 5.051,379.971 23.006,357.692 45.146 L 317.183 85.400 317.193 185.541 C 317.199 240.618,317.293 285.827,317.404 286.006 C 317.514 286.185,318.458 286.735,319.502 287.228 C 340.398 297.106,340.695 326.630,320.000 336.679 C 311.659 340.729,299.681 339.806,292.286 334.543 C 275.513 322.606,277.534 296.491,295.920 287.600 L 297.988 286.600 297.994 202.500 C 297.997 156.245,297.917 118.400,297.815 118.400 C 297.713 118.400,277.457 138.515,252.802 163.100 L 207.975 207.800 208.087 246.975 L 208.200 286.150 211.036 287.575 C 215.093 289.613,217.857 291.857,220.232 295.041 C 220.872 295.898,221.505 296.690,221.638 296.800 C 221.771 296.910,222.423 297.990,223.087 299.200 C 231.318 314.207,223.113 333.965,206.789 338.447 C 204.257 339.142,194.593 339.370,192.600 338.781 C 176.873 334.135,168.594 319.807,172.707 304.353 C 174.432 297.871,182.685 288.638,188.482 286.706 C 188.660 286.647,188.759 273.218,188.703 256.864 L 188.600 227.129 151.638 263.917 L 114.675 300.705 115.330 302.342 C 121.161 316.915,112.626 334.017,97.270 338.530 C 93.732 339.570,81.135 338.882,79.820 337.577 C 79.611 337.370,79.209 337.200,78.927 337.200 C 78.286 337.200,73.551 334.320,71.554 332.715 C 69.575 331.124,72.862 328.195,39.591 361.200 C 3.458 397.045,0.800 399.695,0.800 399.870 C 0.800 400.011,321.242 399.783,325.100 399.639 C 326.766 399.577,327.207 399.420,327.232 398.881 C 327.250 398.488,327.346 398.405,327.460 398.686 C 327.587 398.998,327.896 399.051,328.329 398.833 C 329.217 398.385,332.596 397.600,333.634 397.600 C 334.087 397.600,334.727 397.330,335.057 397.000 C 335.387 396.670,336.084 396.400,336.605 396.400 C 337.126 396.400,337.664 396.220,337.800 396.000 C 337.936 395.780,338.492 395.600,339.036 395.600 C 339.580 395.600,340.129 395.330,340.255 395.000 C 340.382 394.670,340.927 394.400,341.466 394.400 C 342.018 394.400,342.339 394.225,342.200 394.000 C 342.054 393.763,342.513 393.600,343.327 393.600 C 344.083 393.600,344.926 393.330,345.200 393.000 C 345.474 392.670,345.991 392.387,346.349 392.371 C 346.707 392.355,347.540 391.999,348.200 391.580 C 348.860 391.160,350.075 390.501,350.900 390.114 C 351.725 389.728,352.400 389.184,352.400 388.906 C 352.400 388.628,352.850 388.400,353.400 388.400 C 353.950 388.400,354.400 388.241,354.400 388.047 C 354.400 387.852,354.715 387.579,355.100 387.440 C 356.315 387.001,357.604 386.137,357.379 385.912 C 357.260 385.793,357.621 385.581,358.181 385.440 C 358.742 385.300,359.200 385.008,359.200 384.792 C 359.200 384.577,359.371 384.400,359.581 384.400 C 359.790 384.400,360.555 383.794,361.281 383.053 C 362.006 382.312,363.005 381.580,363.500 381.426 C 363.995 381.272,364.400 380.978,364.400 380.773 C 364.400 380.568,364.681 380.400,365.024 380.400 C 365.367 380.400,365.536 380.220,365.400 380.000 C 365.264 379.780,365.427 379.600,365.763 379.600 C 366.098 379.600,366.879 379.105,367.498 378.500 C 368.117 377.895,368.798 377.337,369.011 377.260 C 369.225 377.183,369.355 376.958,369.300 376.760 C 369.245 376.562,369.373 376.400,369.584 376.400 C 370.376 376.400,378.400 368.048,378.400 367.225 C 378.400 366.771,378.636 366.400,378.925 366.400 C 379.214 366.400,379.698 365.770,380.000 365.000 C 380.302 364.230,380.786 363.600,381.075 363.600 C 381.364 363.600,381.600 363.229,381.600 362.776 C 381.600 362.316,381.781 362.064,382.010 362.206 C 382.235 362.345,382.394 362.311,382.363 362.130 C 382.211 361.260,382.443 360.400,382.829 360.400 C 383.382 360.400,384.400 359.382,384.400 358.829 C 384.400 358.593,384.575 358.400,384.790 358.400 C 385.004 358.400,385.478 357.815,385.844 357.100 C 386.209 356.385,386.754 355.656,387.054 355.480 C 387.354 355.304,387.600 354.709,387.600 354.157 C 387.600 353.589,387.774 353.260,388.000 353.400 C 388.220 353.536,388.400 353.277,388.400 352.824 C 388.400 352.371,388.567 352.000,388.771 352.000 C 389.198 352.000,390.400 349.741,390.400 348.939 C 390.400 348.642,390.545 348.400,390.723 348.400 C 391.162 348.400,392.400 345.528,392.400 344.508 C 392.400 344.056,392.670 343.582,393.000 343.455 C 393.385 343.308,393.602 342.684,393.606 341.713 C 393.611 340.589,393.712 340.354,394.000 340.800 C 394.288 341.246,394.389 341.016,394.394 339.900 C 394.398 338.836,394.574 338.400,395.000 338.400 C 395.435 338.400,395.600 337.953,395.600 336.776 C 395.600 335.796,395.758 335.251,396.000 335.400 C 396.244 335.551,396.400 334.937,396.400 333.824 C 396.400 332.578,396.558 332.032,396.900 332.100 C 397.225 332.165,397.424 331.640,397.468 330.600 C 397.611 327.194,397.579 327.349,398.000 328.000 C 398.276 328.426,398.390 327.944,398.394 326.333 C 398.398 324.880,398.579 324.007,398.900 323.900 C 399.885 323.572,400.135 4.400,399.150 4.400 C 398.910 4.400,398.818 4.670,398.945 5.000 M196.600 304.052 C 191.900 305.127,189.221 311.665,191.635 316.169 C 196.457 325.167,209.369 320.047,207.126 310.026 C 206.077 305.337,201.740 302.876,196.600 304.052 M305.619 304.069 C 297.858 306.296,297.315 316.471,304.761 320.131 C 307.872 321.660,314.800 319.657,314.800 317.229 C 314.800 316.993,314.938 316.800,315.106 316.800 C 315.274 316.800,315.724 315.921,316.106 314.846 C 318.394 308.406,312.306 302.149,305.619 304.069 M89.364 311.649 C 83.025 317.935,83.234 317.628,84.495 318.802 C 91.031 324.892,101.343 316.501,97.419 308.286 C 95.959 305.231,95.749 305.319,89.364 311.649 " stroke="none" fill="#949cd4" fill-rule="evenodd"></path><path id="path1" d="M74.400 5.000 C 74.056 5.415,74.041 5.600,74.351 5.600 C 74.598 5.600,74.800 5.409,74.800 5.176 C 74.800 4.943,74.980 4.864,75.200 5.000 C 75.420 5.136,75.600 5.057,75.600 4.824 C 75.600 4.212,74.978 4.303,74.400 5.000 M66.176 6.987 C 65.430 7.552,65.441 7.575,66.457 7.587 C 67.039 7.594,67.618 7.330,67.745 7.000 C 68.040 6.230,67.186 6.223,66.176 6.987 M60.667 8.667 C 60.162 9.171,60.401 9.600,61.187 9.600 C 61.723 9.600,61.901 9.408,61.745 9.000 C 61.498 8.358,61.099 8.235,60.667 8.667 M57.800 10.000 C 57.657 10.231,58.028 10.397,58.676 10.394 C 59.549 10.389,59.666 10.301,59.200 10.000 C 58.431 9.503,58.107 9.503,57.800 10.000 M55.600 11.000 C 55.600 11.330,55.870 11.600,56.200 11.600 C 56.530 11.600,56.800 11.330,56.800 11.000 C 56.800 10.670,56.530 10.400,56.200 10.400 C 55.870 10.400,55.600 10.670,55.600 11.000 M51.430 13.067 C 51.302 13.400,51.521 13.600,52.013 13.600 C 52.446 13.600,52.800 13.360,52.800 13.067 C 52.800 12.373,51.696 12.373,51.430 13.067 M47.600 15.085 C 47.600 15.368,47.881 15.600,48.224 15.600 C 48.567 15.600,48.745 15.435,48.621 15.234 C 48.497 15.033,48.621 14.781,48.898 14.675 C 49.174 14.569,48.995 14.501,48.500 14.526 C 48.005 14.550,47.600 14.802,47.600 15.085 M45.390 16.431 C 45.214 16.985,45.009 17.139,44.831 16.850 C 44.643 16.546,44.102 16.795,43.203 17.597 C 42.462 18.259,41.618 18.800,41.328 18.800 C 41.038 18.800,40.800 18.936,40.800 19.102 C 40.800 19.269,40.256 19.646,39.591 19.940 C 38.175 20.567,37.197 21.464,37.206 22.129 C 37.210 22.443,37.325 22.422,37.551 22.066 C 37.737 21.772,38.004 21.547,38.145 21.566 C 39.142 21.699,39.579 21.495,39.802 20.794 C 39.943 20.351,40.225 20.092,40.429 20.218 C 40.633 20.344,40.800 20.257,40.800 20.024 C 40.800 19.791,41.269 19.600,41.843 19.600 C 42.621 19.600,42.825 19.442,42.647 18.979 C 42.516 18.638,42.567 18.456,42.759 18.575 C 42.952 18.694,43.332 18.523,43.604 18.196 C 43.876 17.868,44.352 17.600,44.662 17.600 C 44.971 17.600,45.333 17.320,45.464 16.977 C 45.596 16.634,45.965 16.454,46.285 16.577 C 46.626 16.708,46.801 16.604,46.708 16.325 C 46.425 15.475,45.675 15.535,45.390 16.431 M34.962 23.445 C 35.142 23.913,35.038 24.023,34.581 23.848 C 34.188 23.697,33.447 24.098,32.601 24.920 C 31.448 26.040,31.362 26.242,32.016 26.291 C 32.438 26.323,32.742 26.144,32.692 25.893 C 32.641 25.642,32.780 25.428,33.000 25.418 C 34.388 25.352,36.687 22.800,35.357 22.800 C 34.930 22.800,34.798 23.017,34.962 23.445 M26.396 30.443 C 24.172 32.667,22.451 34.584,22.570 34.704 C 22.690 34.823,22.475 35.164,22.094 35.461 C 21.444 35.968,21.447 35.986,22.140 35.743 C 22.888 35.481,24.800 33.753,24.800 33.339 C 24.800 33.216,25.247 32.764,25.792 32.335 C 26.338 31.905,26.743 31.348,26.692 31.095 C 26.642 30.843,26.823 30.628,27.096 30.618 C 27.689 30.596,29.600 28.611,29.600 28.017 C 29.600 27.788,29.840 27.600,30.133 27.600 C 30.427 27.600,30.667 27.330,30.667 27.000 C 30.667 26.143,30.818 26.021,26.396 30.443 M20.470 37.326 C 19.991 37.835,19.600 38.555,19.600 38.926 C 19.600 39.297,19.330 39.600,19.000 39.600 C 18.670 39.600,18.400 39.783,18.400 40.007 C 18.400 40.231,17.770 41.026,17.000 41.774 C 15.514 43.217,15.317 43.600,16.061 43.600 C 16.572 43.600,19.600 40.463,19.600 39.933 C 19.600 39.750,19.780 39.600,20.000 39.600 C 20.220 39.600,20.400 39.139,20.400 38.576 C 20.400 38.013,20.548 37.644,20.729 37.756 C 20.909 37.868,21.358 37.608,21.725 37.180 C 22.713 36.026,21.565 36.160,20.470 37.326 M14.588 44.976 C 13.752 45.751,13.618 46.103,13.940 46.676 C 14.325 47.363,14.362 47.359,14.643 46.600 C 14.807 46.160,15.368 45.395,15.891 44.900 C 16.571 44.256,16.671 44.000,16.241 44.000 C 15.911 44.000,15.167 44.439,14.588 44.976 M12.681 48.267 C 12.799 48.575,12.614 48.800,12.243 48.800 C 11.879 48.800,11.600 49.128,11.600 49.557 C 11.600 49.974,11.330 50.418,11.000 50.545 C 10.670 50.671,10.400 51.021,10.400 51.321 C 10.400 51.621,10.670 51.867,11.000 51.867 C 11.330 51.867,11.600 51.537,11.600 51.133 C 11.600 50.730,11.791 50.400,12.024 50.400 C 12.257 50.400,12.340 50.226,12.208 50.013 C 12.077 49.800,12.336 49.397,12.784 49.117 C 13.721 48.532,13.867 47.733,13.038 47.733 C 12.729 47.733,12.568 47.973,12.681 48.267 M9.600 53.187 C 9.600 53.708,9.795 53.900,10.175 53.754 C 10.491 53.633,10.652 53.279,10.532 52.967 C 10.212 52.132,9.600 52.277,9.600 53.187 M8.667 54.667 C 8.206 55.127,8.375 55.600,9.000 55.600 C 9.330 55.600,9.600 55.330,9.600 55.000 C 9.600 54.375,9.127 54.206,8.667 54.667 M399.792 95.200 C 399.792 117.310,399.841 126.355,399.900 115.300 C 399.959 104.245,399.959 86.155,399.900 75.100 C 399.841 64.045,399.792 73.090,399.792 95.200 M6.769 58.476 C 6.493 59.594,6.563 60.000,7.035 60.000 C 7.681 60.000,7.802 58.972,7.200 58.600 C 6.980 58.464,6.786 58.408,6.769 58.476 M5.805 60.792 C 5.643 61.055,5.690 61.450,5.910 61.670 C 6.431 62.191,6.845 61.521,6.424 60.838 C 6.178 60.440,6.029 60.429,5.805 60.792 M4.693 63.302 C 4.587 63.578,4.748 64.035,5.050 64.318 C 5.507 64.745,5.600 64.660,5.600 63.816 C 5.600 62.757,5.027 62.432,4.693 63.302 M4.019 65.377 C 3.747 65.705,3.617 66.204,3.731 66.487 C 3.866 66.823,3.948 66.770,3.968 66.333 C 3.986 65.967,4.225 65.586,4.500 65.488 C 4.775 65.390,4.891 65.191,4.757 65.045 C 4.623 64.900,4.291 65.049,4.019 65.377 M2.850 68.734 C 2.268 69.791,2.375 70.110,3.151 69.630 C 3.441 69.451,3.608 68.966,3.522 68.552 C 3.380 67.870,3.317 67.887,2.850 68.734 M82.708 69.591 C 63.480 74.484,56.038 97.282,68.670 112.596 C 80.938 127.469,104.301 124.456,112.987 106.881 L 114.411 104.000 200.005 104.000 C 249.619 104.000,285.600 104.149,285.600 104.355 C 285.600 104.551,284.810 105.496,283.844 106.455 C 282.878 107.415,262.673 127.568,238.944 151.241 C 215.215 174.913,195.355 194.578,194.811 194.941 C 193.500 195.814,115.827 195.969,114.711 195.100 C 114.358 194.825,113.478 193.370,112.754 191.866 C 110.035 186.212,103.553 180.361,98.106 178.642 C 96.838 178.242,95.358 177.741,94.818 177.529 C 93.562 177.035,84.287 177.024,83.327 177.515 C 82.927 177.720,81.992 178.003,81.249 178.144 C 66.727 180.901,58.007 201.301,65.214 215.655 C 74.901 234.949,103.811 234.975,112.692 215.698 C 113.225 214.542,113.995 213.417,114.404 213.198 C 115.375 212.678,174.765 212.663,175.586 213.183 C 176.050 213.476,175.290 214.456,171.948 217.877 C 163.894 226.119,101.958 287.801,101.612 287.923 C 101.421 287.990,99.855 287.547,98.132 286.939 C 94.317 285.591,86.191 285.347,82.600 286.473 C 60.821 293.300,56.189 320.700,74.600 333.799 C 82.566 339.466,91.743 340.341,100.800 336.298 C 112.704 330.983,119.372 315.936,115.046 304.152 C 114.471 302.585,114.000 301.075,114.000 300.797 C 114.000 299.980,188.500 225.961,189.189 226.093 C 189.912 226.233,190.340 285.416,189.627 286.749 C 189.419 287.138,188.052 288.063,186.589 288.805 C 170.643 296.900,167.672 319.308,180.930 331.498 C 190.385 340.191,203.468 341.177,214.000 333.990 C 222.662 328.080,227.561 316.267,225.174 307.046 C 222.754 297.701,218.167 291.974,209.900 287.978 L 207.200 286.673 207.200 247.013 L 207.200 207.354 247.516 167.177 C 299.541 115.332,298.356 116.485,298.816 117.213 C 299.231 117.868,299.363 285.510,298.950 286.586 C 298.813 286.944,297.778 287.700,296.650 288.266 C 284.475 294.379,278.146 309.199,282.832 320.627 C 284.033 323.558,284.598 324.709,285.564 326.195 C 299.420 347.518,330.747 340.336,334.392 315.000 C 335.968 304.049,328.768 291.957,318.091 287.627 C 317.372 287.335,316.652 286.894,316.491 286.648 C 316.331 286.402,316.110 241.290,316.000 186.400 L 315.800 86.600 215.009 86.400 L 114.218 86.200 112.718 83.456 C 106.574 72.216,94.435 66.607,82.708 69.591 M0.845 76.174 C 0.580 76.819,0.437 77.719,0.527 78.174 C 0.654 78.815,0.703 78.762,0.746 77.933 C 0.775 77.347,1.001 76.800,1.246 76.718 C 1.491 76.636,1.609 76.216,1.509 75.785 C 1.352 75.111,1.258 75.165,0.845 76.174 M0.114 81.800 C 0.117 82.900,0.195 83.303,0.287 82.695 C 0.379 82.086,0.377 81.186,0.282 80.695 C 0.187 80.203,0.111 80.700,0.114 81.800 M92.000 86.794 C 99.988 89.017,100.009 101.474,92.029 104.196 C 85.804 106.319,80.000 102.135,80.000 95.523 C 80.000 88.962,85.476 84.979,92.000 86.794 M93.235 195.414 C 100.139 198.961,99.333 210.370,92.034 212.397 C 85.463 214.222,80.000 210.257,80.000 203.662 C 80.000 196.601,87.025 192.223,93.235 195.414 M93.873 303.939 C 102.669 308.447,99.660 321.200,89.800 321.200 C 84.253 321.200,80.800 317.747,80.800 312.200 C 80.800 305.187,87.745 300.798,93.873 303.939 M203.173 303.908 C 208.902 306.792,210.189 314.367,205.687 318.705 C 201.234 322.996,193.067 321.656,190.616 316.232 C 186.912 308.034,195.205 299.895,203.173 303.908 M311.600 303.632 C 315.232 305.276,317.200 308.282,317.200 312.184 C 317.200 321.787,304.336 324.965,299.915 316.454 C 295.912 308.749,303.794 300.099,311.600 303.632 M399.709 316.400 C 399.709 317.390,399.787 317.795,399.882 317.300 C 399.978 316.805,399.978 315.995,399.882 315.500 C 399.787 315.005,399.709 315.410,399.709 316.400 " stroke="none" fill="#fbfafb" fill-rule="evenodd"></path><path id="path2" d="M84.144 4.199 C 84.303 4.612,84.121 4.800,83.564 4.800 C 83.118 4.800,82.864 4.620,83.000 4.400 C 83.136 4.180,83.069 4.000,82.851 4.000 C 82.632 4.000,82.340 4.360,82.200 4.800 C 81.902 5.740,80.985 5.859,80.655 5.000 C 80.519 4.646,79.919 4.400,79.189 4.400 C 78.509 4.400,78.055 4.565,78.179 4.766 C 78.499 5.283,75.938 6.781,74.989 6.631 C 74.555 6.562,73.570 6.724,72.800 6.989 C 72.030 7.255,69.780 7.976,67.800 8.592 C 60.682 10.807,49.570 15.666,47.569 17.440 C 47.221 17.748,46.835 18.000,46.711 18.000 C 46.374 18.000,37.463 23.996,37.000 24.535 C 36.780 24.791,35.340 26.012,33.800 27.249 C 28.386 31.597,22.756 37.620,17.667 44.509 C 16.750 45.750,16.000 46.892,16.000 47.045 C 16.000 47.199,15.585 47.881,15.078 48.562 C 12.997 51.356,7.600 61.891,7.600 63.160 C 7.600 63.402,7.420 63.600,7.200 63.600 C 6.980 63.600,6.800 63.962,6.800 64.405 C 6.800 65.213,6.707 65.460,5.468 67.932 C 5.100 68.665,4.800 69.690,4.800 70.209 C 4.800 70.728,4.620 71.264,4.400 71.400 C 4.180 71.536,4.000 72.142,4.000 72.747 C 4.000 73.352,3.736 74.196,3.413 74.624 C 3.090 75.051,2.820 76.165,2.813 77.100 C 2.803 78.361,2.640 78.800,2.182 78.800 C 1.695 78.800,1.618 79.090,1.819 80.161 C 1.983 81.032,1.854 82.004,1.462 82.861 C 0.333 85.327,0.308 88.434,0.152 244.584 L -0.004 400.167 9.603 390.584 C 14.887 385.313,30.457 369.839,44.205 356.199 C 57.952 342.558,69.200 331.246,69.200 331.061 C 69.200 330.875,68.210 329.236,67.000 327.417 C 65.790 325.599,64.800 323.926,64.800 323.701 C 64.800 323.476,64.531 322.776,64.202 322.146 C 63.874 321.516,63.604 320.631,63.602 320.180 C 63.601 319.729,63.390 319.150,63.134 318.894 C 62.090 317.850,62.533 306.966,63.763 303.439 C 68.597 289.570,83.027 281.801,96.800 285.653 C 98.450 286.114,100.276 286.516,100.857 286.546 C 101.955 286.602,174.684 214.818,174.111 214.244 C 173.976 214.110,160.532 214.003,144.233 214.007 L 114.600 214.014 113.139 216.707 C 104.278 233.048,82.578 236.140,69.421 222.936 C 57.107 210.579,59.776 189.140,74.729 180.296 C 76.119 179.473,77.478 178.800,77.749 178.800 C 78.019 178.800,78.411 178.650,78.620 178.466 C 81.769 175.699,96.231 175.699,99.380 178.466 C 99.589 178.650,100.084 178.800,100.480 178.800 C 100.876 178.800,101.200 178.980,101.200 179.200 C 101.200 179.420,101.457 179.600,101.771 179.600 C 102.086 179.600,102.581 179.825,102.871 180.100 C 103.162 180.375,103.940 180.870,104.599 181.200 C 106.906 182.354,111.712 187.652,113.142 190.618 C 113.880 192.148,114.619 193.670,114.785 194.000 C 115.050 194.526,119.939 194.613,154.524 194.702 L 193.960 194.804 196.280 192.568 C 203.310 185.793,283.004 106.056,283.500 105.300 L 284.092 104.400 199.648 104.400 L 115.205 104.400 113.806 107.300 C 106.969 121.478,90.287 126.904,76.142 119.550 C 73.240 118.042,72.668 117.646,69.943 115.258 C 68.580 114.065,64.800 109.200,64.800 108.639 C 64.800 108.520,64.377 107.472,63.859 106.311 C 59.502 96.536,61.683 84.098,69.069 76.600 C 71.308 74.327,73.127 72.800,73.597 72.800 C 73.818 72.800,74.000 72.652,74.000 72.471 C 74.000 71.793,79.940 69.191,83.200 68.440 C 85.633 67.880,93.140 68.024,95.800 68.681 C 98.263 69.290,104.000 71.956,104.000 72.491 C 104.000 72.661,104.179 72.800,104.397 72.800 C 105.764 72.800,110.960 78.525,113.110 82.400 C 113.904 83.830,114.744 85.132,114.976 85.294 C 115.209 85.456,160.670 85.589,216.000 85.591 L 316.600 85.594 356.917 45.497 C 379.092 23.444,397.227 5.156,397.217 4.857 C 397.208 4.548,397.446 4.409,397.771 4.533 C 398.085 4.654,398.556 4.494,398.817 4.179 C 399.230 3.682,378.453 3.605,241.603 3.602 C 101.424 3.598,83.939 3.664,84.144 4.199 M85.200 87.979 C 77.887 91.866,79.569 102.598,87.671 103.745 C 91.708 104.317,96.800 101.370,96.800 98.462 C 96.800 98.014,96.980 97.536,97.200 97.400 C 98.281 96.732,97.221 92.379,95.432 90.136 C 93.171 87.303,88.375 86.292,85.200 87.979 M86.849 195.581 C 81.839 196.838,78.899 202.870,81.239 207.088 C 85.109 214.063,94.485 213.514,97.044 206.163 C 97.686 204.318,97.764 202.148,97.200 201.800 C 96.980 201.664,96.800 201.186,96.800 200.738 C 96.800 197.601,90.927 194.557,86.849 195.581 M88.349 304.040 C 83.007 304.847,79.833 310.220,81.845 315.051 C 82.200 315.903,82.695 316.730,82.945 316.889 C 83.338 317.139,94.800 306.226,94.800 305.601 C 94.800 304.616,90.855 303.662,88.349 304.040 " stroke="none" fill="#fba3db" fill-rule="evenodd"></path><path id="path3" d="M397.200 4.898 C 397.200 5.172,390.045 12.597,381.300 21.398 L 365.400 37.400 381.700 21.202 C 397.254 5.745,398.527 4.400,397.600 4.400 C 397.380 4.400,397.200 4.624,397.200 4.898 M351.746 50.614 C 348.968 53.372,346.764 55.694,346.848 55.774 C 346.931 55.853,349.327 53.597,352.171 50.759 C 355.015 47.922,357.220 45.600,357.070 45.600 C 356.920 45.600,354.524 47.856,351.746 50.614 M328.996 73.300 L 321.800 80.600 329.100 73.404 C 333.115 69.446,336.400 66.161,336.400 66.104 C 336.400 65.819,335.681 66.518,328.996 73.300 M318.689 83.510 L 316.000 86.220 316.000 185.936 C 316.000 249.007,316.141 285.917,316.385 286.371 C 316.596 286.767,317.361 287.330,318.085 287.624 C 340.631 296.770,339.682 328.541,316.600 337.313 C 298.786 344.083,278.502 327.351,281.732 308.549 C 282.322 305.112,282.542 304.373,283.905 301.238 C 286.217 295.918,290.897 291.155,296.650 288.266 C 297.778 287.700,298.813 286.944,298.950 286.586 C 299.363 285.510,299.231 117.868,298.816 117.213 C 298.356 116.485,299.541 115.332,247.516 167.177 L 207.200 207.354 207.200 247.013 L 207.200 286.673 209.900 287.978 C 218.167 291.974,222.754 297.701,225.174 307.046 C 227.561 316.267,222.662 328.080,214.000 333.990 C 205.892 339.522,197.143 340.288,188.000 336.264 C 168.221 327.559,167.359 298.566,186.589 288.805 C 188.052 288.063,189.419 287.138,189.627 286.749 C 190.340 285.416,189.912 226.233,189.189 226.093 C 188.500 225.961,114.000 299.980,114.000 300.797 C 114.000 301.075,114.471 302.585,115.046 304.152 C 117.090 309.718,116.536 317.660,113.691 323.600 C 109.332 332.697,99.740 338.800,89.800 338.800 C 83.973 338.800,78.065 336.657,73.296 332.814 C 70.049 330.198,70.077 330.190,65.407 335.155 L 61.414 339.400 65.414 335.500 C 69.923 331.104,69.723 331.193,71.609 332.745 C 73.451 334.261,78.279 337.200,78.927 337.200 C 79.209 337.200,79.611 337.370,79.820 337.577 C 81.135 338.882,93.732 339.570,97.270 338.530 C 112.626 334.017,121.161 316.915,115.330 302.342 L 114.675 300.705 151.638 263.917 L 188.600 227.129 188.703 256.864 C 188.759 273.218,188.660 286.647,188.482 286.706 C 182.686 288.638,174.448 297.852,172.704 304.353 C 168.572 319.755,176.884 334.138,192.600 338.781 C 194.593 339.370,204.257 339.142,206.789 338.447 C 223.113 333.965,231.318 314.207,223.087 299.200 C 222.423 297.990,221.771 296.910,221.638 296.800 C 221.505 296.690,220.872 295.898,220.232 295.041 C 217.857 291.857,215.093 289.613,211.036 287.575 L 208.200 286.150 208.087 246.975 L 207.975 207.800 252.802 163.100 C 277.457 138.515,297.713 118.400,297.815 118.400 C 297.917 118.400,297.997 156.245,297.994 202.500 L 297.988 286.600 295.920 287.600 C 275.576 297.438,275.940 327.634,296.515 336.954 C 303.230 339.996,313.415 339.877,320.000 336.679 C 340.695 326.630,340.398 297.106,319.502 287.228 C 318.458 286.735,317.514 286.185,317.404 286.006 C 317.293 285.827,317.201 240.625,317.198 185.555 L 317.194 85.429 319.484 83.115 C 320.744 81.842,321.686 80.800,321.577 80.800 C 321.468 80.800,320.168 82.020,318.689 83.510 M-0.000 87.024 C -0.000 87.587,0.163 87.946,0.362 87.823 C 0.562 87.700,0.631 87.239,0.516 86.800 C 0.228 85.699,0.000 85.798,-0.000 87.024 M399.795 247.400 C 399.795 283.480,399.842 298.181,399.900 280.068 C 399.958 261.956,399.958 232.436,399.900 214.468 C 399.842 196.501,399.795 211.320,399.795 247.400 M194.800 303.917 C 186.023 308.319,189.153 321.200,199.000 321.200 C 208.990 321.200,212.081 308.393,203.173 303.908 C 200.251 302.436,197.746 302.439,194.800 303.917 M304.140 303.805 C 297.569 307.080,296.926 315.837,302.960 319.900 C 306.532 322.306,312.267 321.574,314.964 318.369 C 321.413 310.706,313.002 299.389,304.140 303.805 M201.500 304.067 C 207.257 305.517,209.415 313.596,205.219 317.994 C 199.716 323.763,190.800 320.180,190.800 312.200 C 190.800 306.240,195.610 302.584,201.500 304.067 M310.627 304.205 C 313.999 305.238,316.767 308.803,316.794 312.146 C 316.802 313.167,315.485 316.800,315.106 316.800 C 314.938 316.800,314.800 316.993,314.800 317.229 C 314.800 319.657,307.872 321.660,304.761 320.131 C 294.878 315.274,300.139 300.990,310.627 304.205 M89.100 311.477 C 81.663 318.880,81.858 318.370,85.684 320.409 C 94.271 324.986,103.537 313.118,96.822 306.142 C 95.587 304.859,96.118 304.492,89.100 311.477 M97.419 308.286 C 101.343 316.501,91.031 324.892,84.495 318.802 C 83.234 317.628,83.025 317.935,89.364 311.649 C 95.749 305.319,95.959 305.231,97.419 308.286 M50.778 349.608 C 47.426 352.913,44.754 355.687,44.842 355.773 C 44.929 355.859,47.790 353.157,51.200 349.769 C 54.610 346.380,57.282 343.606,57.137 343.604 C 56.992 343.602,54.131 346.304,50.778 349.608 M27.993 372.300 L 23.800 376.600 28.100 372.407 C 30.465 370.101,32.400 368.166,32.400 368.107 C 32.400 367.818,31.887 368.306,27.993 372.300 M10.182 390.002 C 5.113 395.061,1.064 399.200,1.186 399.200 C 1.307 399.200,5.544 395.060,10.600 390.000 C 15.656 384.940,19.705 380.801,19.597 380.802 C 19.489 380.804,15.252 384.944,10.182 390.002 " stroke="none" fill="#b9c4e4" fill-rule="evenodd"></path><path id="path4" d="M82.933 4.200 C 82.933 4.530,83.258 4.800,83.654 4.800 C 84.130 4.800,84.297 4.597,84.145 4.200 C 84.018 3.870,83.694 3.600,83.424 3.600 C 83.154 3.600,82.933 3.870,82.933 4.200 M76.216 5.041 C 75.902 5.355,74.870 5.672,73.922 5.745 C 72.975 5.817,71.840 6.011,71.400 6.176 C 70.761 6.415,70.721 6.389,71.200 6.044 C 71.530 5.806,71.611 5.609,71.380 5.606 C 71.149 5.603,70.757 5.803,70.508 6.052 C 70.260 6.300,69.552 6.559,68.936 6.627 C 68.321 6.694,67.753 6.941,67.675 7.175 C 67.597 7.409,66.918 7.600,66.167 7.600 C 65.415 7.600,64.800 7.769,64.800 7.975 C 64.800 8.181,64.485 8.363,64.100 8.379 C 62.049 8.465,61.593 8.604,61.778 9.086 C 61.911 9.434,61.591 9.600,60.787 9.600 C 60.134 9.600,59.600 9.780,59.600 10.000 C 59.600 10.220,59.163 10.400,58.629 10.400 C 58.094 10.400,57.387 10.670,57.057 11.000 C 56.727 11.330,55.984 11.600,55.405 11.600 C 54.805 11.600,54.459 11.772,54.600 12.000 C 54.840 12.389,54.317 12.562,53.300 12.430 C 53.025 12.394,52.800 12.643,52.800 12.982 C 52.800 13.419,52.398 13.600,51.429 13.600 C 50.443 13.600,49.837 13.881,49.271 14.600 C 48.796 15.204,48.077 15.600,47.455 15.600 C 46.700 15.600,46.487 15.762,46.657 16.205 C 46.817 16.621,46.705 16.738,46.296 16.582 C 45.964 16.454,45.598 16.628,45.464 16.977 C 45.333 17.320,44.963 17.600,44.642 17.600 C 44.321 17.600,43.704 18.050,43.271 18.600 C 42.839 19.150,42.106 19.600,41.642 19.600 C 41.179 19.600,40.800 19.791,40.800 20.024 C 40.800 20.257,40.633 20.344,40.429 20.218 C 40.225 20.092,39.943 20.351,39.802 20.794 C 39.578 21.499,38.897 21.805,37.900 21.647 C 37.735 21.621,37.597 21.825,37.594 22.100 C 37.589 22.494,37.519 22.492,37.266 22.092 C 37.032 21.724,36.795 21.863,36.400 22.599 C 36.102 23.157,35.229 24.093,34.460 24.679 C 33.692 25.266,33.218 25.487,33.408 25.173 C 33.703 24.684,33.655 24.680,33.081 25.145 C 32.711 25.445,32.494 25.828,32.598 25.997 C 32.702 26.165,32.221 26.416,31.530 26.554 C 30.838 26.692,30.369 26.903,30.488 27.021 C 30.785 27.318,27.683 30.596,27.083 30.618 C 26.818 30.628,26.642 30.843,26.692 31.095 C 26.743 31.348,26.338 31.905,25.792 32.335 C 25.247 32.764,24.800 33.216,24.800 33.339 C 24.800 33.731,22.909 35.472,22.140 35.788 C 21.687 35.975,21.584 36.162,21.875 36.271 C 22.212 36.398,22.163 36.668,21.703 37.204 C 21.348 37.619,20.909 37.868,20.729 37.756 C 20.548 37.644,20.400 38.013,20.400 38.576 C 20.400 39.139,20.220 39.600,20.000 39.600 C 19.780 39.600,19.600 39.763,19.600 39.963 C 19.600 40.163,18.797 41.153,17.815 42.163 C 16.833 43.173,16.212 44.000,16.436 44.000 C 16.659 44.000,16.414 44.405,15.891 44.900 C 15.368 45.395,14.809 46.155,14.649 46.589 C 14.404 47.250,14.297 47.282,13.985 46.789 C 13.711 46.357,13.611 46.558,13.606 47.543 C 13.601 48.591,13.464 48.833,12.979 48.647 C 12.638 48.516,12.461 48.575,12.586 48.777 C 12.711 48.979,12.627 49.260,12.400 49.400 C 12.173 49.540,12.091 49.823,12.217 50.028 C 12.344 50.232,12.257 50.400,12.024 50.400 C 11.791 50.400,11.600 50.760,11.600 51.200 C 11.600 51.640,11.375 51.955,11.100 51.900 C 10.825 51.845,10.600 52.160,10.600 52.600 C 10.600 53.040,10.375 53.544,10.100 53.720 C 9.825 53.896,9.600 54.391,9.600 54.820 C 9.600 55.249,9.330 55.600,9.000 55.600 C 8.627 55.600,8.400 55.978,8.400 56.600 C 8.400 57.150,8.220 57.600,8.000 57.600 C 7.780 57.600,7.600 58.121,7.600 58.757 C 7.600 59.432,7.342 60.013,6.981 60.152 C 6.641 60.282,6.416 60.707,6.481 61.095 C 6.548 61.491,6.381 61.756,6.100 61.700 C 5.766 61.633,5.589 62.166,5.568 63.300 C 5.551 64.235,5.446 64.774,5.334 64.498 C 5.223 64.221,4.975 64.092,4.783 64.210 C 4.592 64.329,4.536 64.690,4.660 65.013 C 4.784 65.336,4.667 65.600,4.400 65.600 C 4.133 65.600,4.018 65.870,4.145 66.200 C 4.271 66.530,4.239 66.800,4.073 66.800 C 3.906 66.800,3.726 67.378,3.672 68.084 C 3.618 68.791,3.410 69.470,3.209 69.595 C 3.008 69.719,2.734 70.441,2.600 71.200 C 2.466 71.959,2.215 72.674,2.041 72.790 C 1.868 72.905,1.697 73.799,1.663 74.776 C 1.628 75.754,1.396 76.679,1.148 76.832 C 0.898 76.987,0.778 77.667,0.879 78.356 C 0.979 79.040,0.913 79.600,0.731 79.600 C 0.180 79.600,0.358 80.301,1.100 81.049 C 1.767 81.722,1.767 81.743,1.100 81.490 C 0.547 81.281,0.387 81.454,0.337 82.313 C 0.303 82.911,0.237 83.940,0.192 84.600 C 0.146 85.260,0.253 86.160,0.429 86.600 C 0.671 87.203,0.756 86.997,0.775 85.761 C 0.789 84.860,1.088 83.545,1.440 82.839 C 1.866 81.986,1.994 81.094,1.822 80.178 C 1.618 79.090,1.694 78.800,2.182 78.800 C 2.640 78.800,2.803 78.361,2.813 77.100 C 2.820 76.165,3.090 75.051,3.413 74.624 C 3.736 74.196,4.000 73.352,4.000 72.747 C 4.000 72.142,4.180 71.536,4.400 71.400 C 4.620 71.264,4.800 70.728,4.800 70.209 C 4.800 69.690,5.100 68.665,5.468 67.932 C 6.707 65.460,6.800 65.213,6.800 64.405 C 6.800 63.962,6.980 63.600,7.200 63.600 C 7.420 63.600,7.600 63.402,7.600 63.160 C 7.600 61.891,12.997 51.356,15.078 48.562 C 15.585 47.881,16.000 47.199,16.000 47.045 C 16.000 46.892,16.750 45.750,17.667 44.509 C 22.756 37.620,28.386 31.597,33.800 27.249 C 35.340 26.012,36.780 24.791,37.000 24.535 C 37.463 23.996,46.374 18.000,46.711 18.000 C 46.835 18.000,47.221 17.748,47.569 17.440 C 49.570 15.666,60.682 10.807,67.800 8.592 C 69.780 7.976,72.030 7.255,72.800 6.989 C 73.570 6.724,74.555 6.562,74.989 6.631 C 75.837 6.765,78.595 5.262,78.209 4.876 C 77.738 4.405,76.772 4.485,76.216 5.041 M80.655 5.000 C 80.782 5.330,81.117 5.600,81.400 5.600 C 81.683 5.600,82.018 5.330,82.145 5.000 C 82.310 4.568,82.102 4.400,81.400 4.400 C 80.698 4.400,80.490 4.568,80.655 5.000 M83.000 68.432 C 82.340 68.647,81.170 69.022,80.400 69.265 C 78.308 69.926,74.000 72.079,74.000 72.464 C 74.000 72.649,73.818 72.800,73.597 72.800 C 73.127 72.800,71.308 74.327,69.069 76.600 C 61.683 84.098,59.502 96.536,63.859 106.311 C 64.377 107.472,64.800 108.520,64.800 108.639 C 64.800 109.200,68.580 114.065,69.943 115.258 C 72.668 117.646,73.240 118.042,76.142 119.550 C 90.287 126.904,106.969 121.478,113.806 107.300 L 115.205 104.400 199.648 104.400 L 284.092 104.400 283.500 105.300 C 283.004 106.056,203.310 185.793,196.280 192.568 L 193.960 194.804 154.524 194.702 C 119.939 194.613,115.050 194.526,114.785 194.000 C 114.619 193.670,113.880 192.148,113.142 190.618 C 111.712 187.652,106.906 182.354,104.599 181.200 C 103.940 180.870,103.162 180.375,102.871 180.100 C 102.581 179.825,102.086 179.600,101.771 179.600 C 101.457 179.600,101.200 179.420,101.200 179.200 C 101.200 178.980,100.876 178.800,100.480 178.800 C 100.084 178.800,99.589 178.650,99.380 178.466 C 96.231 175.699,81.769 175.699,78.620 178.466 C 78.411 178.650,78.019 178.800,77.749 178.800 C 76.569 178.800,71.957 182.035,69.200 184.796 C 62.765 191.240,60.037 201.455,62.390 210.298 C 68.888 234.726,101.158 238.801,113.139 216.707 L 114.600 214.014 144.233 214.007 C 160.532 214.003,173.976 214.110,174.111 214.244 C 174.684 214.818,101.955 286.602,100.857 286.546 C 100.276 286.516,98.450 286.114,96.800 285.653 C 83.027 281.801,68.597 289.570,63.763 303.439 C 62.533 306.966,62.090 317.850,63.134 318.894 C 63.390 319.150,63.601 319.729,63.602 320.180 C 63.604 320.631,63.874 321.516,64.202 322.146 C 64.531 322.776,64.800 323.476,64.800 323.701 C 64.800 324.500,69.260 330.800,69.825 330.800 C 70.631 330.800,70.540 330.251,69.594 329.395 C 66.035 326.174,63.200 318.419,63.200 311.906 C 63.200 294.209,81.562 281.085,98.132 286.939 C 99.855 287.547,101.421 287.990,101.612 287.923 C 101.958 287.801,163.894 226.119,171.948 217.877 C 175.290 214.456,176.050 213.476,175.586 213.183 C 174.765 212.663,115.375 212.678,114.404 213.198 C 113.995 213.417,113.225 214.542,112.692 215.698 C 103.811 234.975,74.901 234.949,65.214 215.655 C 58.007 201.301,66.727 180.901,81.249 178.144 C 81.992 178.003,82.927 177.720,83.327 177.515 C 84.287 177.024,93.562 177.035,94.818 177.529 C 95.358 177.741,96.838 178.242,98.106 178.642 C 103.553 180.361,110.035 186.212,112.754 191.866 C 113.478 193.370,114.358 194.825,114.711 195.100 C 115.827 195.969,193.500 195.814,194.811 194.941 C 195.355 194.578,215.215 174.913,238.944 151.241 C 262.673 127.568,282.878 107.415,283.844 106.455 C 284.810 105.496,285.600 104.551,285.600 104.355 C 285.600 104.149,249.619 104.000,200.005 104.000 L 114.411 104.000 112.987 106.881 C 100.057 133.045,60.698 122.901,62.516 93.874 C 64.210 66.817,99.608 59.471,112.718 83.456 L 114.218 86.200 215.105 86.400 C 295.593 86.560,316.030 86.499,316.183 86.100 C 316.336 85.701,296.111 85.599,215.887 85.594 C 160.619 85.591,115.209 85.456,114.976 85.294 C 114.744 85.132,113.904 83.830,113.110 82.400 C 110.960 78.525,105.764 72.800,104.397 72.800 C 104.179 72.800,104.000 72.661,104.000 72.491 C 104.000 71.957,98.273 69.295,95.800 68.678 C 93.596 68.129,84.469 67.954,83.000 68.432 M85.800 86.824 C 79.835 88.575,77.907 97.235,82.428 101.967 C 88.125 107.927,98.000 103.821,98.000 95.491 C 98.000 88.962,92.304 84.915,85.800 86.824 M92.798 87.999 C 96.051 89.658,99.120 96.213,97.200 97.400 C 96.980 97.536,96.800 98.014,96.800 98.462 C 96.800 102.920,88.668 105.345,84.093 102.250 C 75.622 96.520,83.671 83.343,92.798 87.999 M0.267 87.867 C 0.120 88.013,0.015 88.598,0.034 89.167 C 0.068 90.181,0.075 90.179,0.421 89.020 C 0.785 87.803,0.731 87.402,0.267 87.867 M86.397 194.750 C 76.307 198.059,78.433 212.796,89.000 212.796 C 100.651 212.796,101.260 195.324,89.635 194.567 C 88.406 194.487,86.949 194.569,86.397 194.750 M93.441 196.603 C 95.349 197.721,96.800 199.507,96.800 200.738 C 96.800 201.186,96.980 201.664,97.200 201.800 C 98.280 202.467,97.222 206.821,95.436 209.059 C 90.752 214.929,80.366 211.216,80.411 203.688 C 80.450 197.240,87.753 193.270,93.441 196.603 M86.800 303.434 C 83.014 304.783,80.800 308.018,80.800 312.200 C 80.800 315.093,82.142 318.665,82.818 317.571 C 83.005 317.269,83.008 316.926,82.824 316.811 C 82.640 316.695,82.200 315.903,81.845 315.051 C 78.998 308.213,86.910 301.266,93.583 304.744 C 94.462 305.203,95.272 305.406,95.399 305.201 C 96.266 303.800,89.611 302.432,86.800 303.434 " stroke="none" fill="#f7b2e4" fill-rule="evenodd"></path></g></svg>